<?xml version="1.0" encoding="UTF-8"?>
<svg version="1.1" xmlns="http://www.w3.org/2000/svg" width="388" height="621">
<path d="M0 0 C128.04 0 256.08 0 388 0 C388 204.93 388 409.86 388 621 C259.96 621 131.92 621 0 621 C0 416.07 0 211.14 0 0 Z " fill="#EDF2F9" transform="translate(0,0)"/>
<path d="M0 0 C5.08043989 2.35877566 7.01637924 4.83556588 9 10 C9.42021156 13.74850341 9.3791479 17.46937881 9.34057617 21.23779297 C9.34101425 22.36032974 9.34145233 23.48286652 9.34190369 24.63941956 C9.33981786 28.34052066 9.31649566 32.04116577 9.29296875 35.7421875 C9.28737209 38.31193799 9.28310232 40.88169169 9.28010559 43.45144653 C9.26983131 49.51808792 9.2462001 55.58454183 9.21605712 61.65111268 C9.18247524 68.56040806 9.16601762 75.4697114 9.15097082 82.37906814 C9.11964927 96.58613281 9.0669125 110.79306061 9 125 C9.61947982 125.06488837 10.23895964 125.12977674 10.87721157 125.19663143 C12.09493803 125.32733453 12.09493803 125.32733453 13.33726501 125.4606781 C14.14236983 125.54619147 14.94747465 125.63170485 15.77697659 125.71980953 C18.19720573 126.02485586 20.38542504 126.55400607 22.69140625 127.34765625 C23.87851196 127.75455688 23.87851196 127.75455688 25.08959961 128.16967773 C25.90565674 128.46430908 26.72171387 128.75894043 27.5625 129.0625 C28.86296265 129.52668335 28.86296265 129.52668335 30.18969727 130.00024414 C52.7590624 138.27823104 72.5981962 151.51550059 90 168 C90.94488281 168.88042969 91.88976562 169.76085937 92.86328125 170.66796875 C104.61716201 181.84980044 113.95543464 194.95152422 122 209 C122.3295166 209.56477051 122.6590332 210.12954102 122.99853516 210.71142578 C132.24937689 226.66923838 138.02828173 244.03589963 142 262 C142.16516113 262.73105957 142.33032227 263.46211914 142.50048828 264.21533203 C147.45956759 287.26710192 146.99594161 314.01093793 142 337 C141.82307617 337.8569043 141.64615234 338.71380859 141.46386719 339.59667969 C136.17661534 364.91887204 126.38521308 389.08109231 111 410 C110.38850098 410.85053955 110.38850098 410.85053955 109.76464844 411.71826172 C98.02439378 427.94309044 83.53211489 441.74645144 67 453 C65.95972656 453.71285156 64.91945313 454.42570312 63.84765625 455.16015625 C47.28640419 465.88127567 29.08242717 473.26287007 10 478 C9.99641747 478.9243409 9.99641747 478.9243409 9.99276257 479.86735535 C9.93354557 494.8832984 9.85795286 509.89906292 9.76428509 524.91482544 C9.71937953 532.17643784 9.67995291 539.43800178 9.65356445 546.69970703 C9.63054178 553.03133163 9.5970964 559.36280216 9.55129844 565.69430447 C9.52742314 569.04475173 9.51021236 572.39490646 9.50238609 575.74545288 C9.49274958 579.4919902 9.4646937 583.23797413 9.43237305 586.984375 C9.43380814 588.08705215 9.43524323 589.18972931 9.4367218 590.32582092 C9.3429137 598.02543194 8.62344589 604.00177613 3.375 610 C-0.93289702 612.55282786 -4.10941024 613.08679772 -9 612 C-13.69329642 609.04496151 -16.03669526 606.13725559 -18 601 C-18.42267797 597.0989777 -18.37895535 593.22356554 -18.34057617 589.30322266 C-18.34093778 588.11303717 -18.34129938 586.92285168 -18.34167194 585.69659996 C-18.33943663 581.85224843 -18.31660774 578.00833576 -18.29296875 574.1640625 C-18.28855673 571.78735565 -18.28549692 569.41064589 -18.28381348 567.03393555 C-18.26809834 558.23091252 -18.22621462 549.42795193 -18.1875 540.625 C-18.125625 520.94875 -18.06375 501.2725 -18 481 C-83.67 481 -149.34 481 -217 481 C-217 477.37 -217 473.74 -217 470 C-216.20416504 469.9906543 -215.40833008 469.98130859 -214.58837891 469.97167969 C-210.93332349 469.91753072 -207.27948716 469.83396924 -203.625 469.75 C-202.37332031 469.73582031 -201.12164062 469.72164063 -199.83203125 469.70703125 C-190.53320218 469.46360641 -183.53310052 467.90802675 -175.6875 462.875 C-161.75135703 447.96656798 -165.83352544 422.5436928 -165.79125977 403.76269531 C-165.78451501 401.72829731 -165.77702035 399.69390305 -165.76941944 397.65950808 C-165.73641564 388.81756613 -165.71465292 379.97561334 -165.69621959 371.13363039 C-165.69140932 368.82959663 -165.68642809 366.52556329 -165.68141437 364.22152996 C-165.65046874 349.8731612 -165.62382625 335.52478808 -165.60699558 321.17639542 C-165.60304713 317.86775963 -165.59904393 314.55912392 -165.5949707 311.25048828 C-165.59396234 310.42830251 -165.59295398 309.60611674 -165.59191506 308.75901625 C-165.57488002 295.41790479 -165.53371885 282.07697782 -165.48294771 268.73595658 C-165.43112004 255.00348204 -165.40204835 241.27110256 -165.3947987 227.53853106 C-165.39014749 219.84201315 -165.37550905 212.14579949 -165.3350544 204.44937897 C-165.30067808 197.9023057 -165.28684659 191.35559195 -165.29947854 184.80843362 C-165.30528478 181.47278509 -165.29827909 178.13850889 -165.2713089 174.80287361 C-164.46792912 156.29261014 -164.46792912 156.29261014 -172 140 C-179.97927463 132.44077585 -186.7718452 130.03484901 -197.7109375 129.68359375 C-198.95488281 129.64169922 -200.19882813 129.59980469 -201.48046875 129.55664062 C-202.76566406 129.51732422 -204.05085938 129.47800781 -205.375 129.4375 C-206.68339844 129.39431641 -207.99179688 129.35113281 -209.33984375 129.30664062 C-212.55979797 129.20087571 -215.77982531 129.09878421 -219 129 C-219 125.7 -219 122.4 -219 119 C-194.99041146 118.95319419 -170.9808298 118.91796919 -146.97120476 118.89637566 C-135.82209621 118.88608109 -124.67301608 118.87205566 -113.52392578 118.84912109 C-103.80173985 118.82913139 -94.0795745 118.81627035 -84.35736859 118.81182301 C-79.21377393 118.80922506 -74.07023816 118.80315693 -68.92666245 118.78853989 C-64.07581192 118.77486765 -59.22504399 118.77079667 -54.37417603 118.77378464 C-52.60301386 118.77323876 -50.83184866 118.76931917 -49.06070328 118.76158905 C-38.82921682 118.7191607 -29.10322213 119.19664742 -19 121 C-19.00184359 120.43254468 -19.00368717 119.86508936 -19.00558662 119.28043842 C-19.04977224 105.46739078 -19.08273208 91.65435552 -19.10362434 77.84125233 C-19.11406701 71.16130937 -19.12823513 64.48142728 -19.15087891 57.80151367 C-19.17258988 51.35653367 -19.18456499 44.91160272 -19.18975449 38.46658897 C-19.19345336 36.00618403 -19.20067621 33.54578181 -19.21146011 31.08539772 C-19.22595163 27.64256587 -19.2279789 24.19993746 -19.22705078 20.75708008 C-19.23424133 19.73712448 -19.24143188 18.71716888 -19.24884033 17.66630554 C-19.23011688 11.25897554 -18.88897245 7.17958359 -14.5625 2.1875 C-10.22755202 -1.17820899 -5.20799804 -0.82924969 0 0 Z " fill="#050808" transform="translate(228,5)"/>
<path d="M0 0 C5.0312747 -0.10010954 10.06194897 -0.17204301 15.09399414 -0.21972656 C16.79982625 -0.23963837 18.50559198 -0.26677813 20.21118164 -0.30175781 C35.29542902 -0.60299976 45.51729337 1.50960743 59 9 C59 113.94 59 218.88 59 327 C14.37556403 328.94019287 14.37556403 328.94019287 6 324 C2.36694725 320.36694725 0.23785493 316.52256599 -0.24839699 311.36563033 C-0.24763755 310.41367146 -0.24687811 309.46171259 -0.24609566 308.48090649 C-0.25007775 307.37716503 -0.25405985 306.27342358 -0.25816262 305.13623542 C-0.24942409 303.32544508 -0.24942409 303.32544508 -0.24050903 301.47807312 C-0.24307231 299.54831177 -0.24307231 299.54831177 -0.24568737 297.57956535 C-0.25015957 294.01072283 -0.24215898 290.44200034 -0.23213124 286.87317312 C-0.22349722 283.02387266 -0.22641687 279.17457902 -0.22793579 275.32527161 C-0.22898467 268.65677473 -0.22270774 261.98831698 -0.21146011 255.31982994 C-0.19520851 245.67831347 -0.18999746 236.03681593 -0.18748413 226.39528725 C-0.18310649 210.75269054 -0.16979553 195.11011468 -0.15087891 179.4675293 C-0.13252189 164.27189234 -0.11836451 149.07626104 -0.10986328 133.88061523 C-0.10907511 132.47571074 -0.10907511 132.47571074 -0.10827102 131.04242434 C-0.10566095 126.34377918 -0.10313353 121.64513397 -0.10064721 116.94648874 C-0.07991258 77.96431122 -0.04468517 38.98215699 0 0 Z " fill="#EDF2F9" transform="translate(149,140)"/>
<path d="M0 0 C5.63264346 5.63264346 5.63264346 5.63264346 7.39453125 8.27734375 C7.98584839 9.1605127 7.98584839 9.1605127 8.58911133 10.06152344 C8.99282959 10.6805957 9.39654785 11.29966797 9.8125 11.9375 C10.24264404 12.59137695 10.67278809 13.24525391 11.1159668 13.91894531 C25.45107652 35.94199584 35.41151426 60.06556598 40 86 C40.14276367 86.8053418 40.28552734 87.61068359 40.43261719 88.44042969 C45.74537031 119.25439778 45.93447725 151.66161898 40.45019531 182.45654297 C39.96848693 185.17803858 39.51123832 187.903084 39.0546875 190.62890625 C37.34311622 200.66234327 35.43945013 210.39118651 32 220 C31.56945312 221.24652344 31.13890625 222.49304688 30.6953125 223.77734375 C27.22545934 233.58683541 22.90682346 242.83192315 18 252 C17.43410156 253.06089844 16.86820313 254.12179687 16.28515625 255.21484375 C11.92780752 263.01706113 6.75076685 270.16958726 1 277 C0.67 277 0.34 277 0 277 C0 185.59 0 94.18 0 0 Z " fill="#EBF0F7" transform="translate(238,169)"/>
</svg>
